REM MD5 65429a093eca0e416b0eeeecda11d1fa
FILE "Simple 1500 Series Vol. 5 - The Igo (Japan) (Culture Publishers).bin" BINARY
  TRACK 01 MODE2/2352
    INDEX 01 00:00:00
  TRACK 02 AUDIO
    INDEX 00 00:32:52
    INDEX 01 00:34:52
  TRACK 03 AUDIO
    INDEX 00 02:37:45
    INDEX 01 02:39:45
  TRACK 04 AUDIO
    INDEX 00 05:55:42
    INDEX 01 05:57:42
  TRACK 05 AUDIO
    INDEX 00 08:49:59
    INDEX 01 08:51:59
  TRACK 06 AUDIO
    INDEX 00 11:33:73
    INDEX 01 11:35:73
REM LEADOUT 14:51:70
